<svg version="1" xmlns="http://www.w3.org/2000/svg" width="1386.667" height="1386.667" viewBox="0 0 1040.000000 1040.000000"><path d="M511.5.7c-6.6 1.1-16.2 3.7-20.3 5.5-4.2 1.9-15.5 8.3-66.7 37.8-8.2 4.8-22.6 13.1-32 18.5-18.4 10.6-31.1 18-33.5 19.5-.8.6-2.2 1.3-3 1.7-1.4.6-9.1 5.1-34.5 19.8-23.5 13.7-41.3 23.9-45.5 26.3-2.5 1.3-8.5 4.8-13.5 7.8-11.3 6.6-51.5 29.8-57.5 33.2-2.5 1.4-15.5 8.9-29 16.7-13.5 7.8-36.9 21.3-52 30-15.1 8.7-29.7 17.3-32.4 19.2-14.2 10.1-23.2 22.7-28.7 40.3l-2.4 7.5v471l2.3 7.5c3.8 11.9 9.8 22.4 17.7 30.5 8.8 9.1 7.3 8.1 57.5 37 10.7 6.2 23.6 13.6 28.5 16.5 5 2.9 11 6.4 13.5 7.8 2.5 1.4 15.5 8.9 29 16.7 13.5 7.8 43.9 25.3 67.5 39 23.7 13.6 50 28.9 58.5 33.8 8.5 4.9 16.9 9.8 18.6 10.7 3.1 1.8 18.5 10.7 45.9 26.5 8.8 5.1 17.6 10.2 19.5 11.2 1.9 1.1 7.6 4.4 12.5 7.3 10.7 6.2 10 5.8 35.1 20.2 10.9 6.3 22 12.4 24.5 13.5 17 7.5 40.6 7.6 57.8 0 3.7-1.6 54.5-30.5 66.5-37.8 1.7-1 3.8-2.2 4.6-2.6.8-.4 3.8-2 6.5-3.6 4.3-2.6 37.3-21.7 46.1-26.7 7.1-4.1 124.7-72 156.4-90.3 19-11 35.9-20.7 37.5-21.7 1.7-.9 14.7-8.5 29-16.7 14.3-8.3 27.8-16.1 30-17.3 19.1-10.6 25.5-15 33-22.5 6.4-6.5 9-9.9 12.8-17.5 9-18.1 8.2 7.9 8.2-257.5v-235l-2.3-7.5c-4-12.9-9.8-22.5-18.7-31.5-7.3-7.2-11.6-10.3-27.5-19.3-1.9-1.1-17.7-10.2-35-20.2s-33.5-19.4-36-20.8c-2.5-1.4-12.8-7.3-23-13.2-10.2-5.9-20.1-11.7-22-12.7-1.9-1.1-16.3-9.4-32-18.5s-36.1-20.9-45.5-26.3c-9.3-5.4-35.7-20.6-58.5-33.8-22.8-13.2-48.9-28.3-58-33.5-19.3-11.1-39.4-22.7-46.6-26.9-21.8-12.9-29.8-16.6-41.3-18.8-3.8-.8-18.5-1.3-21.6-.8zm19.4 29.4c2.4.5 6.2 1.9 8.5 3.1 3.8 1.9 50.2 28.6 85.1 48.9 8.3 4.8 16.8 9.7 19 10.9 2.2 1.2 11.2 6.4 20 11.5l19.5 11.3c1.9 1 14.8 8.5 28.5 16.4 32 18.6 55.8 32.3 61.5 35.5 7.9 4.5 23.4 13.5 27.2 16 2.1 1.2 4 2.3 4.2 2.3.3 0 2.9 1.4 5.8 3.1 2.9 1.8 6.7 4 8.3 4.9 1.7.9 14.5 8.4 28.5 16.5 25.8 14.9 28.9 16.7 37.1 21.4 44.8 25.6 48.5 27.8 54.1 33.3 6.5 6.6 11.3 15.6 12.5 23.9.5 3 .8 108.2.8 233.9l-.2 228.5-2.1 6c-2.9 7.8-8 15.4-13.4 19.7-3.5 2.9-16.4 10.7-40.8 24.5-1.9 1.1-11.2 6.5-20.6 12-9.4 5.5-17.7 10.3-18.5 10.7-.8.4-2.3 1.2-3.4 1.9-2.1 1.2-15.3 8.9-21.5 12.5-12.9 7.4-24.5 14.1-38 21.9-45.3 26.2-80.9 46.8-84 48.5-3.8 2.2-21.1 12.1-26.3 15.2-1.8 1-13.8 7.9-26.7 15.4-12.9 7.5-34.5 19.9-48 27.7-13.5 7.8-27.6 15.9-31.3 18.1-3.8 2.1-8.1 4.6-9.7 5.6-16.9 10.1-29.9 17-34.5 18.3-7.2 2.1-17.7 2.2-24.6.2-4.8-1.4-28.2-14.4-67.7-37.5-6.8-4-12.5-7.2-12.8-7.2-.2 0-2.1-1.1-4.2-2.3-2-1.3-9.5-5.8-16.7-9.9-15.2-8.8-75.5-43.6-107-61.8-12.1-7-54.2-31.3-93.5-54s-73.5-42.4-76-43.8c-16.6-9.3-25-14.9-29.3-19.4-5.5-5.9-10.1-15-11.4-22.3-.5-2.8-.8-108.1-.8-234l.2-229 2.1-5.8c1.2-3.3 3.5-8 5.1-10.6 5.2-8 9.2-11 35.6-26.1 8.7-5 24-13.8 31-17.9 4.4-2.6 8.7-5 9.5-5.4.8-.4 2.4-1.3 3.5-1.9 2.7-1.8 8.2-5 13.5-8 2.5-1.4 8.6-4.9 13.5-7.8 5-2.9 10.4-6 12-7 5.8-3.3 21-12.1 22.5-13 .8-.5 8.5-4.9 17-9.8s21.5-12.4 28.9-16.7c7.4-4.2 14.9-8.5 16.5-9.5 1.7-1 6-3.4 9.6-5.5 3.6-2.1 8.1-4.6 10-5.7 9.4-5.4 44.4-25.7 51.5-29.8 4.4-2.6 12.5-7.3 18-10.4 5.5-3.2 10.7-6.2 11.5-6.7 3.3-2 31.9-18.4 37-21.2 3-1.6 6.2-3.5 7-4.1.8-.6 2.4-1.6 3.5-2.2 1.1-.6 12.8-7.3 26-14.9 13.2-7.6 26.3-14.9 29-16.1 8.5-3.9 18.3-4.7 28.4-2.3z"/><path d="M518.5 201.7c-4.4.9-8.6 3.1-22.5 11.6-8 5-15.4 9.5-16.5 10.1-1.1.6-3.9 2.4-6.3 3.9-2.4 1.6-5.8 3.6-7.5 4.6-3.5 2-35.1 21.4-43.2 26.6-7.1 4.5-64.3 39.7-67.4 41.5-2.8 1.6-10.9 6.6-17.1 10.5-1.9 1.3-17.7 10.9-35 21.5-46.3 28.3-45.1 27.4-49.1 35.8-1.7 3.6-2.3 6.4-2.2 12.2 0 11.4 3.8 17.8 14.7 24.7 3.9 2.5 8.7 5.6 10.6 6.8 20.8 13.4 235.4 144.5 237.9 145.3 4.4 1.5 12.7 1.5 17.1-.1 3.1-1.1 16.6-9.2 48-28.7 4.7-2.9 16.6-10.2 26.5-16.3 9.9-6 22.5-13.8 28-17.2 19.3-11.9 34-21 35.8-22 .9-.6 13.3-8.2 27.5-16.9 14.1-8.7 36.3-22.4 49.2-30.4 12.9-8 24.4-15 25.5-15.6 16.9-9.3 22.6-17.2 22.2-30.6-.3-8.9-2.4-13.9-8.2-19.3-3-2.8-90.2-57.4-113-70.7-1.6-1-9.5-5.8-17.5-10.7-74-45.7-119.9-73.8-122.4-74.8-3.4-1.5-12-2.5-15.1-1.8zm15.6 66.8c2.9 1.5 13.7 8 22.7 13.7 1.5 1 3.8 2.4 5.2 3.2 4.9 2.8 38.5 23.6 39.5 24.4.6.5 1.5 1.1 2.1 1.3.6.2 17.8 10.7 38.2 23.4 20.5 12.6 38 23.4 39 24 1 .5 9.1 5.5 18 11 12.4 7.6 15.9 10.2 14.9 11.1-.6.6-10.6 6.9-22.2 13.9-11.5 7-22.6 13.8-24.5 15-1.9 1.3-16.5 10.3-32.5 20-15.9 9.8-30.7 18.8-32.7 20.1-8.4 5.3-11.7 7.4-20.8 12.9-5.2 3.2-10.7 6.6-12.2 7.6-1.5 1.1-3 1.9-3.3 1.9-.3 0-1.8.8-3.3 1.9-6.5 4.5-25.1 15.6-29 17.3-6.2 2.8-14.9 2.6-20.9-.5-4-2-178.8-109.1-180.3-110.4-.7-.7 1.7-2.3 13.5-9.5 5.5-3.4 12.3-7.5 15-9.2 2.8-1.7 5.9-3.6 7-4.3 4.9-2.9 24.5-14.9 29-17.8 6.9-4.5 109.2-67.4 113.2-69.6 7.1-4 18-4.6 24.4-1.4z"/><path d="M271 490.9c-14.7 4.5-22.8 19.7-18.5 34.6 2.3 7.8 8.5 13.9 23 22.6 10.9 6.5 20.4 12.3 49 29.9 8.3 5.1 20 12.3 26 16 6.1 3.7 27.1 16.7 46.9 28.9 19.7 12.1 36.2 22.1 36.7 22.1s.9.4.9 1c0 .5.4 1 .9 1s6.9 3.7 14.2 8.3c7.4 4.6 14.9 9.2 16.6 10.3 4.5 2.6 18.7 11.4 31.2 19.2 5.7 3.5 12.3 7.3 14.7 8.4 5.3 2.3 14.8 2.7 19.5.8 2.8-1.1 102.3-61.8 167.9-102.5 9.1-5.6 26.6-16.4 39-24 45.9-28.1 47.8-29.4 51.3-34.4 5.7-8.4 6.4-19.3 1.6-28.6-2.8-5.3-5.3-8-10.8-11.2-4-2.4-5.7-2.7-13.1-2.7-6.5-.1-9.3.4-12 1.8-1.9 1-52.5 32-112.4 68.9-59.9 36.8-110.8 67.6-113.1 68.2-5.6 1.7-13.5 1-19-1.8-2.5-1.2-13.2-7.6-23.7-14.1-10.6-6.5-36.8-22.7-58.3-35.9-21.4-13.2-44.6-27.4-51.5-31.7-6.9-4.3-22.6-14-35-21.5-12.4-7.6-24.1-14.8-26-16-12.5-8.1-26-16-29.4-17.1-4.1-1.5-12.5-1.7-16.6-.5z"/><path d="M269 628.9c-6.8 2.4-14.2 10.3-16.4 17.5-3.1 9.8-.5 20.7 6.6 27.7 4.9 4.7 250.8 155.8 256.6 157.6 4.6 1.4 12.5 1.2 16.8-.3 1-.4 9.6-5.5 18.9-11.2 9.4-5.8 19.9-12.2 23.5-14.4 3.6-2.1 10-6.1 14.3-8.8 4.3-2.8 8-5 8.2-5 .2 0 4.6-2.6 9.7-5.9 5.1-3.2 15.4-9.5 22.8-14.1s15.1-9.3 17-10.5c1.9-1.3 10-6.2 18-11s15.7-9.6 17.1-10.6c1.5-1 15-9.3 30-18.5 15.1-9.2 35.7-21.9 45.9-28.2 10.2-6.3 20.3-12.6 22.6-13.8 8.8-5.1 13.4-12.6 14.1-23 .5-6.2.2-7.9-1.9-12.5-5.2-11.3-14.8-17.1-26.9-16.4-8.1.5-3.2-2.2-58.7 32-16.1 9.9-34.1 21-40 24.6-24.3 14.9-38.9 23.9-82.5 50.8-25.1 15.5-47.4 29-49.5 30.1-4.8 2.5-13.6 3.5-18.7 2.1-2.2-.6-12.5-6.3-23-12.7-10.4-6.4-25.7-15.8-34-20.9-8.2-5-49.2-30.2-91-56s-78-47.6-80.5-48.5c-5.7-2.2-13.2-2.2-19-.1z"/></svg>