<svg xmlns="http://www.w3.org/2000/svg" xmlns:xlink="http://www.w3.org/1999/xlink" viewBox="0 0 229.87 259.76"><defs><linearGradient id="a" x1="47.76" x2="183.71" y1="148.04" y2="148.04" gradientUnits="userSpaceOnUse"><stop offset="0" stop-color="#2f8adf"/><stop offset="1" stop-color="#0de3f2"/></linearGradient><linearGradient id="b" x1="47.79" x2="183.69" y1="94.82" y2="94.82" xlink:href="#a"/><linearGradient id="c" x1="47.76" x2="183.71" y1="182.38" y2="182.38" xlink:href="#a"/></defs><g data-name="Ebene 2"><g data-name="Ebene 1"><path fill="url(#a)" d="M112.14 172.69L51 135.09a6.88 6.88 0 01-2.25-9.45 6.87 6.87 0 019.45-2.25l53.91 33.17a6.86 6.86 0 007.2 0l53.91-33.17a6.85 6.85 0 019.44 2.25 6.87 6.87 0 01-2.25 9.45l-61.1 37.6a6.86 6.86 0 01-7.17 0z"/><path fill="url(#b)" d="M183.69 94.82a7.89 7.89 0 00-.05-.84v-.2a6.77 6.77 0 00-3.17-4.89l-61.1-37.61a6.91 6.91 0 00-7.2 0L51 88.89a6.83 6.83 0 00-3.17 4.89v.2a7.08 7.08 0 000 1.68v.2a6.83 6.83 0 003.17 4.89l61.11 37.6a6.86 6.86 0 007.2 0l61.1-37.6a6.77 6.77 0 003.17-4.89v-.2a7.89 7.89 0 00.11-.84zm-71.55 27.41L67.6 94.82l44.54-27.41a6.86 6.86 0 017.2 0l44.54 27.41-44.54 27.41a6.86 6.86 0 01-7.2 0z"/><path fill="url(#c)" d="M112.14 207L51 169.42a6.87 6.87 0 01-2.22-9.42 6.86 6.86 0 019.45-2.25l53.91 33.17a6.86 6.86 0 007.2 0l53.91-33.17a6.85 6.85 0 019.44 2.25 6.86 6.86 0 01-2.25 9.44L119.34 207a6.91 6.91 0 01-7.2 0z"/><path fill="#fff" d="M114.94 259.76a18.25 18.25 0 01-9.14-2.44L9.13 201.51A18.31 18.31 0 010 185.69V74.07a18.33 18.33 0 019.13-15.82L105.8 2.44a18.34 18.34 0 0118.27 0l96.67 55.81a18.33 18.33 0 019.13 15.82v111.62a18.31 18.31 0 01-9.13 15.82l-96.67 55.81a18.24 18.24 0 01-9.13 2.44zM114.93 7a11.31 11.31 0 00-5.63 1.5L12.63 64.31A11.32 11.32 0 007 74.07v111.62a11.3 11.3 0 005.63 9.76l96.67 55.81a11.29 11.29 0 0011.27 0l96.67-55.81a11.3 11.3 0 005.63-9.76V74.07a11.32 11.32 0 00-5.63-9.76L120.57 8.5a11.32 11.32 0 00-5.64-1.5z"/></g></g></svg>