<svg version="1" xmlns="http://www.w3.org/2000/svg" width="1386.667" height="1386.667" viewBox="0 0 1040.000000 1040.000000"><path d="M503.5 3c-3.8 1-8.3 2.3-10 3-1.6.7-3.2 1.4-3.5 1.5-2.6.9-4.8 2.1-6.2 3.3-1 .8-1.8 1.1-1.8.7 0-.4-.8-.1-1.7.7-1 .9-5.4 3.6-9.8 6.1-9.6 5.4-12.3 6.9-24 13.7-4.9 2.9-11.5 6.6-14.5 8.3-3 1.6-6.2 3.5-7 4.1-.8.7-3.3 2.1-5.5 3.1-2.2 1.1-4.2 2.3-4.5 2.6-.3.3-4.8 3-10 6s-10.3 5.8-11.2 6.4c-.9.5-2.9 1.7-4.5 2.6-1.5.8-14.7 8.4-29.3 16.9-14.6 8.4-27.8 16-29.5 16.8-1.6.9-3.2 1.8-3.5 2.1-.5.6-2 1.5-9.9 5.9-4.1 2.2-22.2 12.7-27.6 15.9-1.1.7-2.7 1.5-3.5 1.9-.8.4-4.6 2.6-8.5 4.9-6 3.6-27.6 16.1-39.4 22.7-2 1.2-4.9 2.9-6.6 3.9-1.6 1-4.6 2.6-6.5 3.7-9.2 5.1-11.5 6.5-12.1 7.4-.3.5-1.3 1-2.1 1.2-.8.1-2.7.9-4.1 1.9-1.5.9-3.1 1.7-3.7 1.7-.5 0-1 .4-1 1 0 .5-.4 1-.9 1-.8 0-15.1 8-16.1 9-.3.3-1.8 1.2-3.5 2-1.6.8-3.2 1.7-3.5 2-.3.3-2.1 1.3-4 2.3-6 3.2-9.5 5.2-10 5.7-.3.3-1.6 1.1-3 1.8s-3.4 1.8-4.5 2.5-5.4 3.2-9.5 5.5-9.3 5.4-11.5 6.7c-2.2 1.4-4.6 2.8-5.4 3.2-7.2 3.4-39.4 23-43.5 26.4-5.1 4.3-13.7 13.9-14.5 16.2-.2.7-.7 1.4-1.1 1.7-1.4 1-5.8 10.6-7.6 16.5-1 3.3-2 6.7-2.3 7.5-.3.8-.6 106.8-.8 235.5-.2 252.4-.5 237.4 4.8 252 1.3 3.3 2.5 6.2 2.8 6.5.4.3 1.5 2.2 2.6 4.2 2.5 4.8 10.3 13.9 15.7 18.5 3.7 3.1 17 11.4 28.6 17.9 2 1.1 5.3 2.9 7.2 4 1.9 1.1 7.8 4.5 13.2 7.7 5.3 3.1 9.9 5.7 10.4 5.7.4 0 1.5.6 2.3 1.4.9.7 3.6 2.5 6.1 3.8 3.8 2.1 30.1 17.2 41 23.6 1.9 1.1 5.8 3.3 8.5 4.8 2.8 1.5 6.1 3.5 7.4 4.5 1.3 1.1 3 1.9 3.7 1.9.8 0 1.4.4 1.4 1 0 .5.5 1 1.1 1 .9 0 15.1 7.9 19.9 11 .8.6 2.6 1.5 4 2.2 1.4.6 3.5 2.1 4.7 3.2 1.3 1.1 2.3 1.7 2.3 1.3 0-.4 2.4.8 5.3 2.6 2.9 1.7 6.1 3.7 7.2 4.4 1.1.7 4.8 2.7 8.3 4.5 3.4 1.8 6.2 3.6 6.2 4 0 .5.4.8.9.8 1 0 14.7 7.7 27.8 15.6 4 2.4 7.4 4.4 7.6 4.4.2 0 8.2 4.6 17.8 10.1 9.6 5.6 19.4 11.3 21.9 12.7 2.5 1.4 6.2 3.6 8.2 4.9 2.1 1.2 4 2.3 4.2 2.3.3 0 3.9 2 7.9 4.5 4.1 2.5 7.9 4.5 8.5 4.5.6 0 1.2.4 1.4.8.2.4 5.4 3.7 11.7 7.2 6.2 3.6 12.8 7.3 14.5 8.3 1.7 1 4.7 2.7 6.6 3.8 1.9 1.1 5.8 3.3 8.5 4.9 2.8 1.7 5.8 3.3 6.8 3.6.9.4 1.7 1 1.7 1.5s.4.9.9.9c1.2 0 34.5 19.2 34.9 20.2.2.4 1.2.8 2.2.8.9 0 2.3.7 3 1.5.7.8 1.9 1.5 2.6 1.5.8 0 1.4.5 1.4 1.2 0 .6.3.9.6.5.3-.3 3 1 6 2.9 2.9 1.9 9.5 4.8 14.6 6.5 14.2 4.8 26.8 4.9 44.9.5 3.8-1 13-5.4 20.9-10.1 4.7-2.8 9.2-5.4 10-5.8.8-.4 4.2-2.3 7.5-4.3 3.3-1.9 6.8-3.8 7.8-4.1.9-.3 1.7-.9 1.7-1.4 0-.5.4-.9 1-.9.5 0 3.9-1.8 7.5-4s7-4 7.5-4c.6 0 1-.3 1-.8 0-.4 2.7-2 6-3.6s6-3.3 6-3.8c0-.4.5-.8 1-.8.9 0 18.7-9.9 26.5-14.7 1.1-.7 3.2-1.8 4.8-2.5 1.5-.7 2.7-1.6 2.7-2 0-.4.4-.8.9-.8.4 0 4.8-2.3 9.7-5.2 4.9-2.8 10.2-5.8 11.7-6.7 1.6-.9 3.6-2.1 4.5-2.6 1-.6 4.9-2.8 8.7-4.9 3.9-2.2 7.2-4.3 7.3-4.8.2-.4 1.2-.8 2.2-.8 1 0 2-.4 2.2-.8.3-.7 5.2-3.6 30.6-18.1 7.9-4.5 50.4-29.1 54-31.2 1.5-.9 4.7-2.7 7.2-4.1 2.5-1.4 6.8-3.9 9.6-5.5 4.7-2.8 11.6-6.8 17.4-10 1.4-.8 4.3-2.5 6.5-3.9 2.2-1.3 5.1-3 6.5-3.7 1.4-.6 2.7-1.4 3-1.7.3-.3 2.8-1.7 5.5-3 2.8-1.4 5.2-2.8 5.5-3.1.4-.5 32.9-19.4 45-26.2 1.9-1 6-3.4 9.1-5.3 3.1-1.9 6-3.4 6.3-3.4.4 0 1.2-.5 1.9-1 1.8-1.6 21.9-13 22.9-13 .4 0 .8-.3.8-.8 0-.4 1.5-1.3 3.3-2.1 1.7-.8 3.4-1.7 3.7-2 .3-.3 2.1-1.5 4.1-2.6 7.9-4.4 19.6-15.4 23-21.6.6-1.3 1.8-2.9 2.4-3.6 1.5-1.4 7.3-15 7.9-18.5.3-1.2.5-2.3.6-2.3 1.2 0 1.5-42.9 1.5-241 0-239.9 0-237.1-3.5-246-2-5.2-7.4-16-8.9-17.8-6.9-8.6-12.3-13.9-18.9-18.6-4.5-3.3-17.8-11.1-18.7-11.1-.4 0-1.9-.8-3.3-1.9-1.5-1-4.3-2.8-6.3-3.9-14.8-8.2-46.9-26.8-49-28.3-1.4-1-2.9-1.6-3.3-1.2-.3.3-.6.1-.6-.5 0-.7-.7-1.2-1.5-1.2s-1.5-.5-1.5-1c0-.6-.5-1-1.1-1-.6 0-7.1-3.6-14.6-8-7.4-4.4-13.7-8-13.9-8-.3 0-2.1-1.1-4.2-2.3-4.1-2.6-10.7-6.4-19.2-11.1-3-1.6-5.7-3.3-6-3.6-.3-.4-2-1.3-3.7-2.1-1.8-.8-3.3-1.7-3.3-2.1 0-.5-.4-.8-1-.8-.5 0-4.4-2-8.6-4.5-4.1-2.5-8-4.5-8.5-4.5s-.9-.5-.9-1c0-.6-.5-1-1.1-1-.7 0-4.6-2.1-8.8-4.6-4.2-2.5-10.1-6-13.1-7.6-3-1.7-6.7-3.9-8.2-4.9-1.4-1.1-2.9-1.9-3.2-1.9-.3 0-3.8-1.9-7.8-4.3s-8-4.6-8.8-5c-.8-.4-2.8-1.5-4.5-2.6-3.4-2.1-8.9-5.2-15.5-8.9-2.5-1.3-5.2-3-6-3.8-.8-.7-1.9-1.4-2.5-1.5-1-.2-2.9-1.2-8-4.5-1.6-1-5.4-3.1-8.2-4.6-2.9-1.4-6.6-3.6-8.2-4.7-1.6-1.2-3.4-2.1-4-2.1-.6 0-1.1-.5-1.1-1.2 0-.6-.3-.9-.6-.5-.4.3-2.6-.7-5-2.3-2.3-1.7-4.5-3-4.8-3-.3 0-5.1-2.7-10.7-6-5.5-3.3-10.3-6-10.6-6-.3 0-1.7-.8-3.1-1.9-1.5-1-4.7-2.9-7.2-4.3s-6.5-3.7-9-5.1c-6.1-3.4-40.5-23.4-45.5-26.3-2.2-1.3-5.7-3.2-7.7-4.1-2.1-1-3.8-2.1-3.8-2.5 0-.5-.6-.8-1.4-.8-.8 0-1.6-.3-1.8-.8-.3-.6-9.4-5.5-10.8-5.7-.3-.1-3.6-1.2-7.5-2.4-9.3-3.1-26.8-3.6-37-1.1zm32.1 28.8c5 2 11.3 5.5 39.9 22.2 17 9.8 19.3 11.2 26.7 15.3 2.5 1.4 6.3 3.6 8.5 4.9 2.1 1.4 4.5 2.8 5.3 3.2.8.4 2.4 1.2 3.5 1.9s9.4 5.5 18.5 10.7c9.1 5.2 17.4 10 18.5 10.7 1.1.7 2.7 1.5 3.5 1.9.8.4 3.3 1.9 5.5 3.3s5.1 3.1 6.5 3.8c1.4.7 3.2 1.7 4 2.2.8.6 7.6 4.5 15 8.8 7.4 4.2 13.7 8.1 13.8 8.5.2.4 1 .8 1.7.8 1.7 0 7.5 3.3 7.5 4.2 0 .5.5.8 1.1.8.6 0 2.4.9 4 2.1 1.6 1.1 2.9 1.7 2.9 1.3 0-.3.7-.1 1.5.6 2.2 1.8 23.6 14 24.6 14 .5 0 .9.4.9 1 0 .5.5 1 1 1 .6 0 2.7 1.1 4.8 2.3 2 1.3 5.7 3.5 8.2 4.9 3.9 2.2 12.5 7.1 17 9.8.8.5 4.4 2.6 8 4.7 3.6 2.1 6.8 4.2 7.2 4.8.4.5.8.6.8.1 0-.4 1.2-.1 2.6.9 5.5 3.6 24.7 14.5 25.5 14.5.5 0 .9.4.9.8 0 .5 1.6 1.4 3.5 2.2 1.9.8 3.5 1.7 3.5 2.2 0 .4.5.8 1.1.8.6 0 4.8 2.2 9.5 5 4.7 2.7 8.9 5 9.4 5 .6 0 1 .4 1 1 0 .5.4 1 1 1 .5 0 3.9 1.8 7.5 4s6.5 3.6 6.5 3.2c0-.4.4-.2.8.4.4.6 3.6 2.7 7.2 4.8 3.6 2 7.2 4.1 8 4.6 4.5 2.8 15.2 9 15.5 9 .2 0 4.1 2.2 8.8 5 4.7 2.7 9 5 9.6 5 .6 0 1.1.3 1.1.8 0 .4 2.1 1.8 4.8 3.2 2.6 1.3 5 2.9 5.4 3.5.4.5.8.7.8.3 0-.5 1.2.2 2.7 1.5 7.8 6.4 14.9 14.8 13.6 16.1-.3.3 0 .6.7.6s1 .3.7.7c-.4.3-.3 1.1.2 1.7 2.5 3.2 4.4 15.4 4.2 26.1-.2 9.4-.1 20.4.2 22.7.3 1.6.1 2.8-.2 2.8-.3 0-.5 3.7-.4 8.2.5 15.7.6 36.7.2 40-.1.7-.1 2.9 0 4.8s.1 7.5.1 12.5c0 4.9.1 10.2.3 11.7.3 1.6.1 2.8-.2 2.8-.3 0-.5 3.7-.4 8.2.3 11.2.4 14.8.3 25.3 0 4.9.1 10.2.3 11.7.3 1.6.1 2.8-.2 2.8-.3 0-.5 3.7-.4 8.2.5 15.7.6 36.7.2 40-.1.7-.1 2.9 0 4.8s.1 7.5.1 12.5c0 4.9.1 10.2.3 11.7.3 1.6.1 2.8-.2 2.8-.3 0-.5 3.7-.4 8.2.3 11.2.4 14.8.3 25.3 0 4.9.1 10.2.3 11.7.3 1.6.1 2.8-.2 2.8-.3 0-.5 3.7-.4 8.2.5 15.7.6 36.7.2 40-.1.7-.1 2.9 0 4.8s.1 7.5.1 12.5c0 4.9.1 10.2.3 11.7.3 1.6.1 2.8-.2 2.8-.3 0-.5 3.7-.4 8.2.3 11.2.4 14.8.3 25.3 0 4.9.1 10.2.3 11.8.3 1.5.1 2.7-.2 2.7-.5 0-.5 10.3 0 19.5.4 7.3-1.1 19.5-3.1 24.7-2.8 7.5-9.7 16.8-15.2 20.6-4 2.8-32.2 19.2-40.8 23.8-1.9 1.1-3.6 2.2-3.8 2.6-.2.5-1 .8-1.7.8-.8 0-2 .6-2.7 1.3-.7.6-3.1 2.1-5.3 3.2-2.2 1.1-4.2 2.2-4.5 2.5-.4.5-14.1 8.4-21.1 12.3-1.3.7-4.2 2.4-6.4 3.8-2.2 1.3-4.2 2.2-4.4 2.1-.2-.2-.7 0-1 .5-.8 1.1-6.1 4.3-8.3 5-1 .3-1.8.9-1.8 1.4 0 .5-.4.9-1 .9-.5 0-4.3 2-8.4 4.4-4.1 2.4-7.7 4.2-8 3.8-.3-.3-.6-.1-.6.5s-1.7 1.9-3.7 3c-2.1 1-11.4 6.3-20.8 11.7-9.3 5.4-18.6 10.8-20.5 11.8l-19.5 11.3c-8.8 5.1-17.6 10.2-19.5 11.2-1.9 1.1-5.9 3.4-8.8 5.2-2.9 1.7-5.7 3.1-6.2 3.1-.4 0-1 .3-1.2.8-.2.6-35.2 20.8-44.3 25.6-1.1.6-2.2 1.3-2.5 1.6-.3.3-6.8 4.2-14.5 8.5-7.7 4.4-14.2 8.2-14.5 8.6-.3.3-1.5.9-2.7 1.3-1.3.4-2.9 1.3-3.6 1.9-.7.7-2.8 2-4.7 3-7.2 3.9-9.5 5.2-10.8 6.5-.7.6-1.8 1.2-2.3 1.2-.6 0-3.3 1.5-6.2 3.3-2.9 1.8-6.5 3.9-8.2 4.7-1.6.8-3.2 1.7-3.5 2-.7.7-4.2 2.8-6.5 4-1.1.5-4.5 2.4-7.7 4.2-24.6 14.3-29.2 16.8-29.9 16.8-.5 0-.9.3-.9.7 0 .5-1 1.3-2.3 1.9-1.2.6-4.9 2.5-8.2 4.2-3.3 1.7-7.6 3.4-9.5 3.8-3.7.9-18.5.9-21 .2-.8-.3-2.8-.9-4.5-1.3-2.7-.8-12.5-5.7-15-7.5-.5-.4-2.6-1.7-4.5-2.7-1.9-1.1-12.2-7-22.9-13.1-10.6-6.2-19.7-11.2-20.2-11.2s-.9-.5-.9-1c0-.6-.6-1-1.4-1-.8 0-2.1-.6-2.8-1.3-.8-.6-2.3-1.7-3.3-2.3-3.6-2-10.9-6.1-15-8.4-2.2-1.2-5.2-3.1-6.7-4.2-1.6-1.1-2.8-1.6-2.8-1.1 0 .4-.4.3-.8-.2-.4-.6-2.7-2.1-5.2-3.4-2.5-1.3-5.2-3-6.1-3.7-.8-.8-1.8-1.4-2.2-1.4-.5 0-32.7-18.4-36.7-21-.8-.5-3.1-1.8-5-2.8-1.9-1-7.5-4.2-12.3-7-4.9-2.9-9.2-5.2-9.7-5.2s-1-.4-1.2-.8c-.1-.4-3-2.3-6.3-4.1-9.6-5.4-10.2-5.7-51.5-29.6-21.7-12.5-40.6-23.5-42-24.3-1.4-.9-2.7-1.7-3-1.7-.3 0-1.6-.8-3-1.6-5.4-3.5-26.9-15.9-27.5-15.9-.3 0-2.4-1.2-4.8-2.7-2.3-1.5-5.1-3.3-6.2-3.9-1.1-.6-4.2-2.3-7-3.9-2.7-1.5-5.4-3.1-6-3.5-.5-.4-3-1.9-5.5-3.2-9.3-5.2-38.6-22.1-41-23.6-1.4-.9-2.8-1.5-3.2-1.4-.5.1-.8-.2-.8-.8 0-.5-.7-1-1.5-1s-1.5-.5-1.5-1c0-.6-.4-.9-.9-.8-.5.2-4.4-2-8.6-4.7-6.6-4.3-9.7-7.1-14.4-13.1-1.5-1.9-5.3-9.7-6.3-12.9-.8-2.4-2.1-22.2-2-28.5.1-3.3.2-17.6.1-19 0-.8 0-4.4.1-8 0-6.9 0-12-.1-26.5 0-11.4 0-10.6.1-20 0-9 0-14.9-.1-28 0-8.9 0-10.8.1-14.3.1-3.4.1-16.8 0-21.7-.1-2.8-.1-5.9-.1-7v-12V560c.1-.8.1-4.4 0-8v-7.8c.1-3 .1-17.6 0-29.7v-20c.1-4.4.1-8.7 0-9.5 0-1.3 0-13.6.1-20.5 0-1.1 0-4.9-.1-8.5v-9.5-12c0-8.9 0-10.9.1-14.3.1-3.4.1-16.8 0-21.7-.1-2.8-.1-5.7-.1-6.5.1-17.6.1-25.5 0-37.5v-20c.1-4.4.1-8.7 0-9.5v-8c.1-3.6.1-8.3.1-10.5-.1-5.3.7-17.4 1.4-20.4 2.3-10.3 13.5-24.5 22.4-28.5 2.3-1 4.2-2.3 4.2-2.8 0-.4.4-.8.9-.8s4.8-2.3 9.6-5c4.8-2.8 9.1-5 9.6-5s.9-.4.9-.9.8-1.1 1.8-1.4c2.4-.8 9.6-5 10-6 .2-.4.7-.7 1.2-.7s4.3-2 8.4-4.5c4.2-2.5 8.1-4.5 8.6-4.5.6 0 1-.4 1-.8s1.6-1.4 3.5-2.1c1.9-.7 3.5-1.6 3.5-2.1s1-1.2 2.3-1.6c1.2-.4 4.6-2.2 7.5-4 2.9-1.9 5.4-3.4 5.6-3.4.3 0 5.5-3 11.8-6.7 6.2-3.7 11.5-6.6 11.8-6.6.3.1 1.2-.4 2-1.1.8-.7 4-2.6 7-4.2s5.7-3.2 6-3.5c.3-.3 3.2-2 6.5-3.8 3.3-1.8 6.5-3.6 7-4.1.6-.4 3-1.9 5.5-3.2 8.1-4.5 22-12.5 24-13.8.8-.6 2.7-1.5 4.3-2.1 1.5-.6 2.7-1.5 2.7-2s.4-.9 1-.9c.5 0 4.7-2.2 9.2-4.9 8.1-4.7 38.9-22.5 45.8-26.4 1.9-1 8.7-5 15.1-8.7 6.3-3.8 13.2-7.6 15.2-8.6s3.7-2.1 3.7-2.6c0-.4.5-.8 1-.8.6 0 9.2-4.8 19.3-10.6 10-5.9 20.2-11.8 22.6-13.2 2.5-1.4 6.7-3.8 9.3-5.3 2.7-1.6 5.3-2.9 5.8-2.9.6 0 1-.3 1-.8 0-.4 1.5-1.3 3.3-2.1 1.7-.8 3.9-2 4.7-2.6.8-.7 4-2.5 7-4.1 3-1.5 5.7-3.1 6-3.4.3-.4 3.2-2.1 6.5-3.9 3.3-1.8 6.5-3.6 7-4.1.9-.6 5.7-3.4 15.5-8.7 1.4-.8 3.9-2.3 5.5-3.3 1.7-1.1 4.6-2.7 6.5-3.7 1.9-.9 3.7-2 4-2.5 1-1.3 12-5.8 15.8-6.4 2-.3 3.9-.8 4.2-1.1 1.1-1.2 16.9.7 21.6 2.5z"/><path d="M514.5 203.8c-2.7.9-8.3 3.9-12.3 6.5s-7.6 4.7-8 4.7c-.4 0-1.7.7-2.7 1.5-1.1.9-9 5.8-17.5 11s-15.9 9.8-16.5 10.2c-.5.5-3.2 2.2-6 3.8-2.7 1.6-6.3 3.8-8 4.7-1.6 1-4 2.3-5.2 3-1.3.6-2.3 1.5-2.3 2 0 .4-.4.8-1 .8-1.2 0-24.4 14.2-24.8 15.2-.2.5-.8.8-1.3.8-.6 0-3.6 1.6-6.7 3.7-3.1 2-7 4.4-8.7 5.3-1.6 1-8.6 5.2-15.3 9.4-6.8 4.2-12.8 7.6-13.3 7.6s-.9.3-.9.8c0 .4-.9 1.2-2 1.7-1.1.6-7.7 4.5-14.6 8.7-6.9 4.3-13 7.8-13.5 7.8s-.9.4-.9.8c0 .5-1.5 1.6-3.2 2.5-1.8 1-4.6 2.6-6.3 3.7-1.6 1.1-3.7 2.3-4.5 2.7-.8.4-3.7 2.2-6.5 4.1-2.7 1.9-5.9 3.8-7 4.3-1.1.5-4 2.3-6.5 3.9s-5.6 3.5-7 4.2c-1.4.7-2.7 1.5-3 1.9-.5.5-11.3 7.2-17.8 10.9-1.4.8-3.2 2.1-4 2.7-.7.7-1.7 1.3-2.2 1.3-2 0-9.1 8-11.3 12.8-1.9 4-2.4 6.6-2.2 11.9.3 11.5 5.2 19.2 16.1 25.5 7.8 4.6 10.6 6.3 19.4 11.9 5.2 3.3 10.3 6.3 11.3 6.6.9.3 1.7.9 1.7 1.4 0 .5.7.9 1.5.9s1.5.4 1.5 1c0 .5.4 1 .9 1 .6 0 5.3 2.7 10.6 6s10 6 10.6 6c.5 0 .9.3.9.8 0 .4.9 1.2 1.9 1.7 1.8.9 13.2 7.7 21.8 13 1.7 1.1 9 5.5 16 9.9 7 4.3 15.5 9.6 18.9 11.7 3.3 2.2 6.5 3.9 7.1 3.9.6 0 1.3.3 1.5.8.3.8 1.5 1.6 23.8 15.2 7.4 4.6 15.8 9.8 18.7 11.7 2.8 1.8 5.6 3.3 6.2 3.3.6 0 1.1.4 1.1 1 0 .5.5 1 1.1 1 .6 0 3 1.3 5.4 3 2.4 1.6 4.6 3 4.9 3 .2 0 3.2 1.8 6.5 4s6.5 4 7.1 4c.5 0 1 .4 1 1 0 .5.4 1 .9 1 .7 0 9.2 5 18.9 11.2 1.5 1 3.4 2.1 4.2 2.5.8.3 3.4 1.9 5.7 3.5 2.3 1.5 4.5 2.8 4.9 2.8.4 0 1.7.8 2.8 1.9 4.9 4.3 15.7 6.6 23.1 4.7 3.4-.8 20.1-9.8 21.5-11.7.3-.3 2.8-1.9 5.6-3.5 2.9-1.6 10.3-6 16.5-9.9 6.3-3.8 12.2-7.4 13.2-8 .9-.5 8.6-5.3 16.9-10.5 8.4-5.2 15.9-9.8 16.8-10.1.9-.4 2.2-1.4 2.9-2.3.7-.9 1.9-1.6 2.5-1.6 1 0 13.5-7.7 16.1-9.8.6-.5 1.5-1.1 2-1.3.6-.2 3.6-2 6.8-3.9 3.2-1.9 6.6-4 7.5-4.5 1-.6 3.1-1.9 4.7-3 1.7-1.2 4.7-3 6.8-4 2-1.1 3.7-2.3 3.7-2.7 0-.5.4-.8.9-.8s9.4-5.2 19.8-11.6c27.1-16.8 33.6-20.8 35.8-22.1 1.1-.7 5.1-3.1 9-5.5 3.8-2.4 7.4-4.5 8-4.7.5-.2 1.4-.8 2-1.3.5-.5 9.1-5.9 18.9-11.9 9.9-6 19.2-12.4 20.7-14.2 9-10.2 8.9-27 0-37.5-1.1-1.2-2.4-2.2-2.9-2.2-.6 0-1.2-.4-1.4-.8-.3-.8-9.5-7.2-10.4-7.2-.2 0-3.5-2-7.2-4.3-3.7-2.4-10.7-6.8-15.7-9.8-4.9-3-9.1-5.7-9.3-6.2-.2-.4-.7-.7-1.2-.7-.6 0-23.8-13.9-30-18-4.7-3.1-74.1-45.6-77.2-47.3-2.1-1.2-3.8-2.4-3.8-2.9 0-.4-.4-.8-1-.8-1.2 0-16.4-9.2-16.8-10.3-.2-.4-.8-.7-1.4-.7-.5 0-2.4-1-4.1-2.2-1.8-1.3-3.4-2.3-3.7-2.3-.3 0-3.2-1.8-6.4-3.9-3.3-2.1-7-4.3-8.3-4.9-1.3-.5-2.3-1.4-2.3-1.9 0-.4-.4-.8-.9-.8-.6 0-8.6-4.7-17.8-10.5-9.2-5.8-17.9-11.1-19.3-11.8-3.5-1.7-8.4-5-9.2-6.2-.4-.5-.8-.6-.8-.2 0 .4-1 .2-2.2-.5-5.3-2.8-13.9-3.3-20.3-1zm17.4 64.3c2 .7 4.8 2 6.3 3 1.4 1.1 2.9 1.9 3.2 1.9.5 0 4 2.2 17.6 10.9 1.4.8 2.7 1.6 3 1.6.4.1 5.2 3 16 10 1.9 1.2 6.4 4 10 6.1 3.6 2.1 6.7 4.2 6.8 4.6.2.4.8.8 1.4.8.6 0 3 1.3 5.5 3 2.4 1.6 4.8 3 5.4 3 .5 0 .9.4.9 1 0 .5.5 1 1.1 1 .7 0 3.7 1.7 6.8 3.7 3.1 2.1 6 3.8 6.4 3.8.4 0 1.2.7 1.7 1.5s1 1.2 1 .8c0-.4 3.8 1.7 8.5 4.7s8.7 5.5 8.9 5.5c.3 0 2.5 1.3 4.9 3 2.5 1.6 5 3 5.6 3 .6 0 1.1.4 1.1.8 0 .5 1 1.4 2.3 2.1 1.2.6 4 2.2 6.2 3.6 2.2 1.3 5.5 3.2 7.3 4.1 1.7 1 3.2 2.1 3.2 2.6 0 .4.5.8 1 .8.6 0 4.6 2.2 9 5 4.4 2.7 8.4 5 8.9 5s1.1.4 1.3.9c.4 1 13.6 9.1 14.9 9.1.5 0 .9.4.9.9s1.4 1.4 3 2.1c1.7.7 3 1.6 3 2.1 0 .7-7.4 5.4-20.8 13.4-.9.6-3.6 2.3-5.9 3.8-2.4 1.5-4.7 2.7-5.3 2.7-.5 0-1 .4-1 1 0 .5-.5 1-1.1 1-.6 0-3 1.3-5.4 3-2.4 1.6-4.8 3-5.3 3-.6 0-1.2.3-1.4.7-.4 1-10.6 7.3-11.7 7.3-.4 0-1.6.9-2.6 2-.9 1-2 1.8-2.4 1.8-.5-.2-3.4 1.5-15.1 9-1.4.9-2.8 1.5-3.2 1.4-.5-.1-.8.2-.8.8 0 .5-.7 1-1.5 1s-1.5.4-1.5 1c0 .5-.4 1-.9 1-1.2 0-14.5 8.2-14.9 9.2-.2.5-.8.8-1.3.8s-3.3 1.6-6.3 3.5-6 3.5-6.6 3.5c-.5 0-1 .3-1 .8 0 .4-1.7 1.6-3.7 2.7-2.1 1.1-4 2.3-4.3 2.6-.3.3-2.4 1.7-4.7 3-2.3 1.3-7.4 4.4-11.5 6.9-4 2.5-7.7 4.7-8.3 5-.5.3-3.6 2.2-6.8 4.2-3.1 2.1-6.2 3.8-6.7 3.8-.6 0-1 .4-1 1 0 .5-.5 1-1 1-.6 0-3.7 1.7-6.8 3.8-10 6.6-13 7.7-21.2 7.6-7.9 0-11.7-1.4-20.7-7.5-2.3-1.6-4.6-2.9-5.2-2.9-.6 0-1.1-.5-1.1-1 0-.6-.5-1-1-1-.9 0-8.7-4.7-10-6-.3-.3-1.9-1.2-3.5-2.1-4.9-2.7-22-13.1-22.5-13.8-.3-.3-1.9-1.3-3.5-2.2-1.7-.9-6.8-4-11.5-6.9-4.7-2.9-9.7-5.9-11.2-6.7-1.5-.8-3-1.8-3.3-2.3-.3-.5-1.8-1.5-3.3-2.3-3.6-1.8-7.6-4.1-8.2-4.7-1-1-4.6-3.1-7.2-4.3-1.6-.6-2.8-1.5-2.8-1.9 0-.4-.7-.8-1.5-.8s-1.5-.5-1.5-1c0-.6-.5-1-1-1-.6 0-3.4-1.5-6.3-3.4-2.8-1.8-8.6-5.4-12.7-7.9-4.1-2.6-8-5.1-8.6-5.5-.6-.5-2-1.3-3.2-1.6-1.2-.4-2.2-1.1-2.2-1.6 0-.4-1.1-1.1-2.5-1.4-1.4-.4-2.5-1.1-2.5-1.6 0-.6-.5-1-1-1-.6 0-3.8-1.8-7.1-4s-6.3-4-6.5-4c-.3 0-2.5-1.4-4.9-3-2.4-1.7-4.6-3-5-3-.3 0-2.9-1.5-5.7-3.4l-5-3.4 3.8-2.4c3.3-2.1 17.6-10.9 22.4-13.9.8-.5 5.1-3.1 9.5-5.9 4.4-2.7 10.9-6.7 14.3-8.7 3.5-2.1 7.6-4.6 9-5.5 1.5-.9 4.2-2.5 6-3.4 1.7-.9 3.2-2 3.2-2.5s.4-.9 1-.9c.5 0 8.7-4.8 18.2-10.7 9.5-5.8 18.5-11.3 20-12.2 8.3-5 17.4-10.6 17.8-11.1.3-.4 1.2-.9 2-1.3.8-.3 6.9-4 13.5-8.2 6.6-4.2 12.8-7.8 13.8-8.1.9-.4 1.7-.9 1.7-1.3 0-.3 2.1-1.7 4.8-3.1 2.6-1.3 4.9-2.7 5.2-3 1.3-1.6 13.7-8.5 17.9-9.9 5-1.9 11.3-1.8 17 0z"/><path d="M273.5 490.8c-.3.3-1.5.7-2.7.9-5.6.9-14.5 8.3-17 14.3-4 9.2-3.3 19.2 1.6 26.5 2.4 3.5 7.1 8.5 7.9 8.5.3 0 5.6 3.1 11.7 7 6.1 3.8 11.5 7 12 7 .6 0 1 .4 1 1 0 .5.4 1 .9 1 .9 0 22.6 13.1 24.8 15 .7.5 1.4 1 1.7 1 .3 0 5.5 3.1 11.7 7 6.1 3.8 11.3 7 11.4 7 .2 0 2.4 1.3 4.8 3 2.5 1.6 4.9 3 5.5 3 .6 0 1.2.3 1.4.8.2.4 3.7 2.7 7.8 5.2 4.1 2.4 7.7 4.7 8 5 .3.3 1.6 1.1 3 1.9 8.4 4.8 25.6 15.5 26.1 16.3.3.5.8.9 1 .7.2-.1 3.1 1.4 6.4 3.5 3.3 2 10.7 6.6 16.5 10.1 5.8 3.5 11 6.8 11.5 7.3.6.5 1.5 1.1 2.1 1.3.5.2 5.2 3 10.4 6.2s10.4 6.3 11.5 7c1.1.7 3.9 2.4 6.2 3.9 2.3 1.6 4.6 2.8 5.2 2.8.6 0 1.1.4 1.1 1 0 .5.5 1 1.1 1 .6 0 3 1.3 5.4 3 2.4 1.6 4.8 3 5.2 3 .5 0 1.8.8 2.9 1.7 2.5 2.3 7.4 5.3 9.7 6 .9.3 1.7.9 1.7 1.4 0 .5.7.9 1.5.9s1.5.4 1.5 1c0 .5.6 1 1.3 1 .7 0 3.5 1.5 6.2 3.3 8.5 5.7 12.3 7.1 19.5 7.1 5.3 0 7.9-.6 12.6-2.9 3.2-1.5 6.1-3.1 6.4-3.5.3-.3 2.5-1.8 5-3.2 2.5-1.5 7-4.2 10-6.2s6-3.6 6.7-3.6c.7 0 1.3-.3 1.3-.8 0-.4 1.7-1.6 3.8-2.7 2-1.1 4.3-2.6 5-3.2.7-.7 1.7-1.3 2.2-1.3.5 0 1.5-.6 2.2-1.3.8-.6 2.7-1.9 4.3-2.8 1.7-.9 11.5-6.9 21.9-13.3 10.3-6.4 19.2-11.6 19.7-11.6s.9-.4.9-.8c0-.5 1.5-1.6 3.3-2.5 1.7-1 4.8-2.7 6.8-4 2-1.2 8.1-4.9 13.5-8.2 5.5-3.3 10.1-6.2 10.4-6.5.4-.5 3.5-2.4 12.2-7.5 5-2.9 27.7-17 30-18.6 1.5-1 3-1.9 3.4-1.9.3 0 2-1 3.7-2.3 1.8-1.2 4.1-2.7 5.2-3.3 1.1-.6 9.9-6 19.5-11.9s18.7-11.5 20.2-12.4c10.4-6.2 28.9-17.9 32-20.3 9.1-7.1 12.4-21.1 7.5-31.8-4.4-9.6-13-15.6-23.5-16.3-3.4-.3-6.4-.2-6.7.1-.6.6-2.9 1.2-5.2 1.4-.7.1-1.3.4-1.3.8 0 .3-1.6 1.2-3.5 2s-3.5 1.7-3.5 2.2c0 .4-.7.8-1.5.8s-1.5.4-1.5 1c0 .5-.4 1-.9 1s-6.3 3.4-13 7.5c-6.6 4.1-12.5 7.5-13.1 7.5-.5 0-1 .3-1 .8 0 .4-1.7 1.6-3.7 2.7-2.1 1.1-4.2 2.4-4.8 2.8-.5.4-5.5 3.5-11 6.9-12.3 7.5-25.8 15.8-29 17.8-1.3.8-5 3-8.2 4.9-3.2 1.8-6 3.6-6.3 4-.3.3-1.5 1.2-2.7 1.8-1.3.7-3.3 1.9-4.5 2.5-1.3.7-2.5 1.5-2.8 1.8-.5.5-9.7 6.2-14.5 9-1.6 1-16.2 9.9-32.4 19.9-16.2 9.9-29.7 18.1-30.2 18.1-.4 0-.9.4-1.1.8-.1.5-3.9 3-8.3 5.6-4.4 2.6-10.5 6.3-13.5 8.2-12.1 7.5-14.4 8.4-22 8.4-6.4-.1-8-.2-8-1 0-.4-.6-.7-1.3-.7-.8 0-6.5-3.1-12.7-6.9-6.2-3.8-12.8-7.8-14.6-8.9-1.8-1.1-7.9-4.8-13.4-8.3-5.6-3.4-10.5-6.2-11.1-6.2-.5 0-.9-.4-.9-.8 0-.5-1.2-1.5-2.7-2.3-1.6-.8-12.8-7.6-25-15.2-12.2-7.5-22.7-13.7-23.3-13.7-.5 0-1-.5-1-1 0-.6-.6-1-1.4-1-.8 0-1.6-.3-1.8-.8-.1-.4-7-4.7-15.2-9.7-8.2-4.9-15.6-9.6-16.4-10.5-.9-.8-1.8-1.4-2.1-1.2-.3.1-2.6-1.1-5.1-2.7-13.2-8.3-16.1-10.1-17.1-10.1-.5 0-1.2-.7-1.5-1.5-.4-.8-1.3-1.5-2.2-1.5-.8 0-2.3-.6-3.1-1.3-2.7-2.3-18.1-11.7-19.1-11.7-.6 0-1-.4-1-.8 0-.5-1.9-1.9-4.2-3.1-2.4-1.2-8.6-4.9-13.8-8.2-13.5-8.5-19-10.9-25.4-11.3-3-.2-5.8-.1-6.1.2z"/><path d="M277.7 627.6c-.3.3-2.1.7-4.2 1-7.5.9-14.6 6.2-19.1 14-2.3 4.1-2.7 6.1-2.7 11.9 0 9 .5 10.6 4.6 16.3 2.9 4.1 12.5 11.6 18.2 14.2 1.1.6 7 4.1 13 7.9 6.1 3.9 12.9 8 15.3 9.2 2.3 1.3 4.2 2.6 4.2 3.1 0 .4.4.8 1 .8.5 0 7.8 4.3 16.1 9.5s15.3 9.5 15.4 9.5c.2 0 11.2 6.7 24.5 15 13.3 8.2 24.4 15 24.7 15 .2 0 2.3 1.3 4.6 2.9 4.5 3 31.9 20 39 24 2.3 1.3 4.4 2.7 4.7 3 .3.3 1.9 1.3 3.5 2.2 1.7.9 12.5 7.5 24.2 14.8 11.6 7.2 21.6 13.1 22.2 13.1.6 0 1.1.4 1.1.8 0 .5 1.5 1.6 3.3 2.5 1.7 1 4.6 2.6 6.2 3.7 1.7 1.1 4.4 2.7 6 3.6 1.7.9 3.7 2.2 4.5 2.8 3.3 2.7 10.1 4.4 16.2 4.2 7.7-.3 9.3-1 22.1-8.9 5.6-3.5 13.8-8.6 18.2-11.3 4.4-2.6 8.3-5.3 8.7-5.9.4-.5.8-.7.8-.3 0 .4 3.7-1.6 8.3-4.6 7.4-4.8 46.1-28.7 50.4-31.1 5.3-3 11.9-7 12.8-7.8 1-.8 40.2-24.9 44.5-27.4 1.4-.8 3.9-2.3 5.5-3.3 1.7-1.1 4.6-2.9 6.5-4 1.9-1.1 6.4-3.8 9.9-6 3.4-2.2 6.7-4 7.1-4 .5 0 1-.3 1.2-.8.2-.4 2.8-2.2 5.8-4.1 3-1.8 15.9-9.7 28.5-17.4 12.7-7.7 23.3-14.5 23.6-15 .3-.5.9-.7 1.3-.5 1.8.9 9.8-7.2 12.7-12.9 2.8-5.5 3.1-6.9 2.7-13-.5-8-2.8-13.3-7.9-18.4-5.8-5.8-11-7.7-19.9-7.4-5.1.1-8.6.8-11 2.1-4.9 2.7-18.4 10.7-19 11.4-.5.6-23.5 14.7-27.3 16.7-1.2.7-2.9 1.7-3.7 2.3-4.6 3.1-11.2 7-12 7-.6 0-1 .4-1 1 0 .5-.7 1-1.5 1s-1.5.4-1.5.9-1.2 1.4-2.7 2c-1.6.6-8.9 4.9-16.3 9.5-17.2 10.8-41.5 25.8-43.8 27.1-2.5 1.4-17 10.3-21.2 13-4.3 2.8-28 17.4-31.8 19.6-1.5.9-6.7 4.1-11.7 7.2-21.7 13.5-29.8 18-32.6 18.1-1.6.1-2.9.4-2.9.8 0 1-9.9.2-13.1-1-1.5-.6-8.1-4.5-14.8-8.6-6.8-4.2-12.6-7.6-13.1-7.6s-1-.3-1.2-.8c-.1-.4-10.9-7.2-23.8-15.1-27.6-17-34.3-21-38-23.3-1.5-.9-9.3-5.7-17.3-10.7-8-5-15-9.1-15.6-9.1-.6 0-1.1-.4-1.1-.9s-1-1.3-2.2-1.7c-1.2-.3-2.6-1.1-3.2-1.6-2.4-2-18.6-11.8-19.6-11.8-.5 0-1-.5-1-1 0-.6-.4-1-.9-1-.4 0-8.2-4.6-17.2-10.2-9-5.5-21.7-13.4-28.3-17.5-6.5-4-12.2-7.3-12.7-7.3s-.9-.5-.9-1c0-.6-.4-1-1-1-.5 0-3.9-1.8-7.4-3.9-3.5-2.2-8.4-4.3-10.7-4.6-2.4-.4-4.6-.8-5-1.1-.3-.2-.9-.1-1.2.2z"/></svg>